<svg version="1.1" id="Layer_1" xmlns="http://www.w3.org/2000/svg" xmlns:xlink="http://www.w3.org/1999/xlink" x="0px" y="0px"
	 width="100%" viewBox="0 0 320 320" enable-background="new 0 0 320 320" xml:space="preserve">
<path fill="#ffffff" opacity="1.000000" stroke="none"
	d="
M258.176239,224.602661
	C258.883453,219.132385 259.183990,213.640259 257.980072,208.221039
	C251.892868,180.820755 225.152466,166.262589 198.780685,175.975220
	C196.382477,176.858444 194.084091,177.739349 191.586563,176.427246
	C185.544434,173.252975 179.348373,170.337265 173.498825,166.841339
	C168.522110,163.867065 168.692505,159.392990 173.655106,156.241028
	C178.011154,153.474350 182.686523,151.201889 186.983536,148.353165
	C191.545120,145.329041 195.816605,145.123047 201.077408,146.952240
	C229.010345,156.664581 258.427032,136.309021 259.606903,106.748131
	C260.798676,76.888634 231.083572,54.314602 202.364288,63.042336
	C182.699219,69.018517 167.153702,89.802635 172.569244,109.850014
	C176.243423,123.451172 175.047150,135.186722 166.714798,146.365616
	C165.353516,148.191925 164.808548,150.918716 162.016647,151.051422
	C159.140182,151.188156 158.309174,148.614212 157.178757,146.626862
	C154.872498,142.572342 152.821045,138.358582 150.304977,134.441437
	C147.377884,129.884384 147.001007,125.335007 148.460571,120.162079
	C150.921234,111.440994 152.161453,102.433006 149.898636,93.532455
	C144.182617,71.049278 121.677795,57.179790 98.339256,61.303192
	C76.726212,65.121735 59.598896,85.938202 62.109070,109.645378
	C65.041351,137.339142 91.473579,156.674133 117.529854,148.614136
	C127.105995,145.651978 134.431915,146.545273 142.077255,152.003220
	C144.502075,153.734283 147.339432,154.875275 149.902634,156.427292
	C155.146011,159.602188 155.325104,163.485580 150.239136,166.749908
	C145.616241,169.717010 140.775345,172.342300 136.076584,175.194122
	C132.701996,177.242279 129.517883,177.328491 125.678024,175.925842
	C105.936447,168.714508 83.687286,176.267746 73.085960,193.464035
	C61.814045,211.748062 64.392548,234.542191 79.943069,249.284943
	C92.767006,261.442749 108.121826,265.046906 124.781021,259.116455
	C141.055801,253.322906 151.200500,241.720093 153.849167,224.157532
	C155.160019,215.465591 152.537720,207.371765 150.460968,199.197220
	C149.774979,196.497009 149.411423,193.995316 150.719559,191.454468
	C153.387772,186.271851 155.896133,180.997482 158.786224,175.941452
	C161.227692,171.670258 164.015976,171.761154 166.571808,176.094360
	C168.939011,180.107697 170.906921,184.355133 173.231598,188.395386
	C175.622604,192.550964 175.840912,196.619797 174.573334,201.309540
	C172.144028,210.297485 170.204071,219.376663 172.757156,228.839508
	C177.907654,247.929459 196.112854,261.089020 217.219147,260.648254
	C236.534805,260.244873 253.443390,245.616928 258.176239,224.602661
z"/>
</svg>