<svg width="615" height="72" viewBox="0 0 615 72" fill="none" xmlns="http://www.w3.org/2000/svg">
<rect width="615" height="72" fill="#F5F5F5"/>
<mask id="path-1-outside-1_0_1" maskUnits="userSpaceOnUse" x="-2" y="-2" width="556" height="76" fill="black">
<rect fill="white" x="-2" y="-2" width="556" height="76"/>
<path d="M16.4 72C11.0667 72 7.03333 70.5 4.3 67.5C1.56667 64.4333 0.2 60.0667 0.2 54.4V50.4H10.6V55.2C10.6 59.7333 12.5 62 16.3 62C18.1667 62 19.5667 61.4667 20.5 60.4C21.5 59.2667 22 57.4667 22 55C22 52.0667 21.3333 49.5 20 47.3C18.6667 45.0333 16.2 42.3333 12.6 39.2C8.06667 35.2 4.9 31.6 3.1 28.4C1.3 25.1333 0.4 21.4667 0.4 17.4C0.4 11.8667 1.8 7.6 4.6 4.6C7.4 1.53333 11.4667 -3.8147e-06 16.8 -3.8147e-06C22.0667 -3.8147e-06 26.0333 1.53333 28.7 4.6C31.4333 7.6 32.8 11.9333 32.8 17.6V20.5H22.4V16.9C22.4 14.5 21.9333 12.7667 21 11.7C20.0667 10.5667 18.7 10 16.9 10C13.2333 10 11.4 12.2333 11.4 16.7C11.4 19.2333 12.0667 21.6 13.4 23.8C14.8 26 17.3 28.6667 20.9 31.8C25.5 35.8 28.6667 39.4333 30.4 42.7C32.1333 45.9667 33 49.8 33 54.2C33 59.9333 31.5667 64.3333 28.7 67.4C25.9 70.4667 21.8 72 16.4 72ZM39.307 0.999995H69.307V11H50.307V29.5H65.407V39.5H50.307V61H69.307V71H39.307V0.999995ZM75.6352 0.999995H105.635V11H86.6352V29.5H101.735V39.5H86.6352V61H105.635V71H75.6352V0.999995ZM143.879 72C138.479 72 134.346 70.4667 131.479 67.4C128.612 64.3333 127.179 60 127.179 54.4V17.6C127.179 12 128.612 7.66666 131.479 4.6C134.346 1.53333 138.479 -3.8147e-06 143.879 -3.8147e-06C149.279 -3.8147e-06 153.412 1.53333 156.279 4.6C159.146 7.66666 160.579 12 160.579 17.6V54.4C160.579 60 159.146 64.3333 156.279 67.4C153.412 70.4667 149.279 72 143.879 72ZM143.879 62C147.679 62 149.579 59.7 149.579 55.1V16.9C149.579 12.3 147.679 10 143.879 10C140.079 10 138.179 12.3 138.179 16.9V55.1C138.179 59.7 140.079 62 143.879 62ZM184.018 72C178.685 72 174.618 70.5 171.818 67.5C169.018 64.4333 167.618 60.0667 167.618 54.4V0.999995H178.618V55.2C178.618 57.6 179.085 59.3333 180.018 60.4C181.018 61.4667 182.418 62 184.218 62C186.018 62 187.385 61.4667 188.318 60.4C189.318 59.3333 189.818 57.6 189.818 55.2V0.999995H200.418V54.4C200.418 60.0667 199.018 64.4333 196.218 67.5C193.418 70.5 189.351 72 184.018 72ZM208.252 0.999995H224.552C230.219 0.999995 234.352 2.33333 236.952 5C239.552 7.6 240.852 11.6333 240.852 17.1V21.4C240.852 28.6667 238.452 33.2667 233.652 35.2V35.4C236.319 36.2 238.186 37.8333 239.252 40.3C240.386 42.7667 240.952 46.0667 240.952 50.2V62.5C240.952 64.5 241.019 66.1333 241.152 67.4C241.286 68.6 241.619 69.8 242.152 71H230.952C230.552 69.8667 230.286 68.8 230.152 67.8C230.019 66.8 229.952 65 229.952 62.4V49.6C229.952 46.4 229.419 44.1667 228.352 42.9C227.352 41.6333 225.586 41 223.052 41H219.252V71H208.252V0.999995ZM223.252 31C225.452 31 227.086 30.4333 228.152 29.3C229.286 28.1667 229.852 26.2667 229.852 23.6V18.2C229.852 15.6667 229.386 13.8333 228.452 12.7C227.586 11.5667 226.186 11 224.252 11H219.252V31H223.252ZM264.6 0.999995H280.8C286.267 0.999995 290.367 2.46666 293.1 5.4C295.833 8.33333 297.2 12.6333 297.2 18.3V25.2C297.2 30.8667 295.833 35.1667 293.1 38.1C290.367 41.0333 286.267 42.5 280.8 42.5H275.6V71H264.6V0.999995ZM280.8 32.5C282.6 32.5 283.933 32 284.8 31C285.733 30 286.2 28.3 286.2 25.9V17.6C286.2 15.2 285.733 13.5 284.8 12.5C283.933 11.5 282.6 11 280.8 11H275.6V32.5H280.8ZM303.174 0.999995H319.474C325.141 0.999995 329.274 2.33333 331.874 5C334.474 7.6 335.774 11.6333 335.774 17.1V21.4C335.774 28.6667 333.374 33.2667 328.574 35.2V35.4C331.241 36.2 333.108 37.8333 334.174 40.3C335.308 42.7667 335.874 46.0667 335.874 50.2V62.5C335.874 64.5 335.941 66.1333 336.074 67.4C336.208 68.6 336.541 69.8 337.074 71H325.874C325.474 69.8667 325.208 68.8 325.074 67.8C324.941 66.8 324.874 65 324.874 62.4V49.6C324.874 46.4 324.341 44.1667 323.274 42.9C322.274 41.6333 320.508 41 317.974 41H314.174V71H303.174V0.999995ZM318.174 31C320.374 31 322.008 30.4333 323.074 29.3C324.208 28.1667 324.774 26.2667 324.774 23.6V18.2C324.774 15.6667 324.308 13.8333 323.374 12.7C322.508 11.5667 321.108 11 319.174 11H314.174V31H318.174ZM359.406 72C354.006 72 349.873 70.4667 347.006 67.4C344.14 64.3333 342.706 60 342.706 54.4V17.6C342.706 12 344.14 7.66666 347.006 4.6C349.873 1.53333 354.006 -3.8147e-06 359.406 -3.8147e-06C364.806 -3.8147e-06 368.94 1.53333 371.806 4.6C374.673 7.66666 376.106 12 376.106 17.6V54.4C376.106 60 374.673 64.3333 371.806 67.4C368.94 70.4667 364.806 72 359.406 72ZM359.406 62C363.206 62 365.106 59.7 365.106 55.1V16.9C365.106 12.3 363.206 10 359.406 10C355.606 10 353.706 12.3 353.706 16.9V55.1C353.706 59.7 355.606 62 359.406 62ZM386.145 71.4C384.145 71.4 382.445 71.2667 381.045 71V61C382.112 61.2667 383.312 61.4 384.645 61.4C386.845 61.4 388.479 60.8667 389.545 59.8C390.612 58.6667 391.145 56.9667 391.145 54.7V0.999995H402.145V54.4C402.145 60.1333 400.812 64.4 398.145 67.2C395.545 70 391.545 71.4 386.145 71.4ZM410.01 0.999995H440.01V11H421.01V29.5H436.11V39.5H421.01V61H440.01V71H410.01V0.999995ZM461.838 72C456.572 72 452.538 70.5 449.738 67.5C447.005 64.5 445.638 60.2667 445.638 54.8V17.2C445.638 11.7333 447.005 7.5 449.738 4.5C452.538 1.5 456.572 -3.8147e-06 461.838 -3.8147e-06C467.105 -3.8147e-06 471.105 1.5 473.838 4.5C476.638 7.5 478.038 11.7333 478.038 17.2V24.6H467.638V16.5C467.638 12.1667 465.805 10 462.138 10C458.472 10 456.638 12.1667 456.638 16.5V55.6C456.638 59.8667 458.472 62 462.138 62C465.805 62 467.638 59.8667 467.638 55.6V44.9H478.038V54.8C478.038 60.2667 476.638 64.5 473.838 67.5C471.105 70.5 467.105 72 461.838 72ZM493.22 11H481.72V0.999995H515.72V11H504.22V71H493.22V11ZM535.345 72C530.012 72 525.979 70.5 523.245 67.5C520.512 64.4333 519.145 60.0667 519.145 54.4V50.4H529.545V55.2C529.545 59.7333 531.445 62 535.245 62C537.112 62 538.512 61.4667 539.445 60.4C540.445 59.2667 540.945 57.4667 540.945 55C540.945 52.0667 540.279 49.5 538.945 47.3C537.612 45.0333 535.145 42.3333 531.545 39.2C527.012 35.2 523.845 31.6 522.045 28.4C520.245 25.1333 519.345 21.4667 519.345 17.4C519.345 11.8667 520.745 7.6 523.545 4.6C526.345 1.53333 530.412 -3.8147e-06 535.745 -3.8147e-06C541.012 -3.8147e-06 544.979 1.53333 547.645 4.6C550.379 7.6 551.745 11.9333 551.745 17.6V20.5H541.345V16.9C541.345 14.5 540.879 12.7667 539.945 11.7C539.012 10.5667 537.645 10 535.845 10C532.179 10 530.345 12.2333 530.345 16.7C530.345 19.2333 531.012 21.6 532.345 23.8C533.745 26 536.245 28.6667 539.845 31.8C544.445 35.8 547.612 39.4333 549.345 42.7C551.079 45.9667 551.945 49.8 551.945 54.2C551.945 59.9333 550.512 64.3333 547.645 67.4C544.845 70.4667 540.745 72 535.345 72Z"/>
</mask>
<path d="M4.3 67.5L2.80697 68.8307L2.81425 68.8389L2.82161 68.847L4.3 67.5ZM0.2 50.4V48.4H-1.8V50.4H0.2ZM10.6 50.4H12.6V48.4H10.6V50.4ZM20.5 60.4L19.0003 59.0767L18.9948 59.083L20.5 60.4ZM20 47.3L18.2761 48.314L18.2828 48.3254L18.2896 48.3366L20 47.3ZM12.6 39.2L11.2767 40.6997L11.287 40.7086L12.6 39.2ZM3.1 28.4L1.34832 29.3652L1.35255 29.3729L1.35685 29.3805L3.1 28.4ZM4.6 4.6L6.06211 5.96463L6.06958 5.95662L6.07697 5.94854L4.6 4.6ZM28.7 4.6L27.1908 5.91235L27.206 5.92984L27.2216 5.94698L28.7 4.6ZM32.8 20.5V22.5H34.8V20.5H32.8ZM22.4 20.5H20.4V22.5H22.4V20.5ZM21 11.7L19.4561 12.9714L19.4752 12.9945L19.4948 13.017L21 11.7ZM13.4 23.8L11.6896 24.8366L11.7009 24.8553L11.7127 24.8737L13.4 23.8ZM20.9 31.8L19.587 33.3086L19.5876 33.3092L20.9 31.8ZM30.4 42.7L28.6333 43.6374L30.4 42.7ZM28.7 67.4L27.2389 66.0342L27.2309 66.0428L27.223 66.0515L28.7 67.4ZM16.4 70C11.4431 70 8.0232 68.6168 5.77839 66.153L2.82161 68.847C6.04347 72.3832 10.6903 74 16.4 74V70ZM5.79303 66.1693C3.49219 63.5878 2.2 59.7627 2.2 54.4H-1.8C-1.8 60.3706 -0.358859 65.2788 2.80697 68.8307L5.79303 66.1693ZM2.2 54.4V50.4H-1.8V54.4H2.2ZM0.2 52.4H10.6V48.4H0.2V52.4ZM8.6 50.4V55.2H12.6V50.4H8.6ZM8.6 55.2C8.6 57.6974 9.11599 59.9429 10.4923 61.5848C11.9252 63.2943 13.99 64 16.3 64V60C14.81 60 14.0248 59.5724 13.5577 59.0152C13.034 58.3904 12.6 57.236 12.6 55.2H8.6ZM16.3 64C18.5495 64 20.5807 63.3449 22.0052 61.717L18.9948 59.083C18.5526 59.5884 17.7838 60 16.3 60V64ZM21.9997 61.7232C23.4722 60.0544 24 57.6653 24 55H20C20 57.268 19.5278 58.479 19.0003 59.0768L21.9997 61.7232ZM24 55C24 51.7535 23.2586 48.8179 21.7104 46.2634L18.2896 48.3366C19.4081 50.1821 20 52.3798 20 55H24ZM21.7239 46.286C20.226 43.7396 17.5659 40.8707 13.9131 37.6914L11.287 40.7086C14.8341 43.7959 17.1073 46.3271 18.2761 48.314L21.7239 46.286ZM13.9232 37.7003C9.46393 33.7656 6.48515 30.3386 4.84315 27.4195L1.35685 29.3805C3.31485 32.8614 6.66941 36.6344 11.2768 40.6997L13.9232 37.7003ZM4.85168 27.4348C3.22903 24.49 2.4 21.1604 2.4 17.4H-1.6C-1.6 21.7729 -0.629027 25.7767 1.34832 29.3652L4.85168 27.4348ZM2.4 17.4C2.4 12.1935 3.71347 8.48104 6.06211 5.96463L3.13789 3.23536C-0.11347 6.71896 -1.6 11.5398 -1.6 17.4H2.4ZM6.07697 5.94854C8.39701 3.40754 11.859 2 16.8 2V-2C11.0744 -2 6.40299 -0.340876 3.12303 3.25146L6.07697 5.94854ZM16.8 2C21.6707 2 25.0095 3.40381 27.1908 5.91235L30.2092 3.28764C27.0572 -0.337154 22.4627 -2 16.8 -2V2ZM27.2216 5.94698C29.5064 8.45471 30.8 12.2338 30.8 17.6H34.8C34.8 11.6329 33.3602 6.74528 30.1784 3.25302L27.2216 5.94698ZM30.8 17.6V20.5H34.8V17.6H30.8ZM32.8 18.5H22.4V22.5H32.8V18.5ZM24.4 20.5V16.9H20.4V20.5H24.4ZM24.4 16.9C24.4 14.325 23.9149 11.9941 22.5052 10.383L19.4948 13.017C19.9518 13.5392 20.4 14.675 20.4 16.9H24.4ZM22.5439 10.4286C21.1454 8.73051 19.1493 8 16.9 8V12C18.2507 12 18.9879 12.4028 19.4561 12.9714L22.5439 10.4286ZM16.9 8C14.6428 8 12.6243 8.70651 11.2291 10.406C9.89606 12.0299 9.4 14.2438 9.4 16.7H13.4C13.4 14.6896 13.8206 13.5534 14.3209 12.944C14.7591 12.4102 15.4905 12 16.9 12V8ZM9.4 16.7C9.4 19.6047 10.1699 22.3291 11.6896 24.8366L15.1104 22.7634C13.9634 20.8709 13.4 18.8619 13.4 16.7H9.4ZM11.7127 24.8737C13.2683 27.3183 15.9409 30.1352 19.587 33.3086L22.2131 30.2914C18.6591 27.1981 16.3317 24.6817 15.0873 22.7262L11.7127 24.8737ZM19.5876 33.3092C24.1067 37.2388 27.0657 40.6831 28.6333 43.6374L32.1667 41.7626C30.2676 38.1835 26.8933 34.3612 22.2124 30.2908L19.5876 33.3092ZM28.6333 43.6374C30.1869 46.5653 31 50.065 31 54.2H35C35 49.535 34.0798 45.368 32.1667 41.7626L28.6333 43.6374ZM31 54.2C31 59.6143 29.6493 63.4557 27.2389 66.0342L30.1611 68.7658C33.484 65.211 35 60.2524 35 54.2H31ZM27.223 66.0515C24.9076 68.5874 21.4165 70 16.4 70V74C22.1835 74 26.8924 72.3459 30.177 68.7485L27.223 66.0515ZM39.307 0.999996V-1H37.307V0.999996H39.307ZM69.307 0.999996H71.307V-1H69.307V0.999996ZM69.307 11V13H71.307V11H69.307ZM50.307 11V9H48.307V11H50.307ZM50.307 29.5H48.307V31.5H50.307V29.5ZM65.407 29.5H67.407V27.5H65.407V29.5ZM65.407 39.5V41.5H67.407V39.5H65.407ZM50.307 39.5V37.5H48.307V39.5H50.307ZM50.307 61H48.307V63H50.307V61ZM69.307 61H71.307V59H69.307V61ZM69.307 71V73H71.307V71H69.307ZM39.307 71H37.307V73H39.307V71ZM39.307 3H69.307V-1H39.307V3ZM67.307 0.999996V11H71.307V0.999996H67.307ZM69.307 9H50.307V13H69.307V9ZM48.307 11V29.5H52.307V11H48.307ZM50.307 31.5H65.407V27.5H50.307V31.5ZM63.407 29.5V39.5H67.407V29.5H63.407ZM65.407 37.5H50.307V41.5H65.407V37.5ZM48.307 39.5V61H52.307V39.5H48.307ZM50.307 63H69.307V59H50.307V63ZM67.307 61V71H71.307V61H67.307ZM69.307 69H39.307V73H69.307V69ZM41.307 71V0.999996H37.307V71H41.307ZM75.6352 0.999996V-1H73.6352V0.999996H75.6352ZM105.635 0.999996H107.635V-1H105.635V0.999996ZM105.635 11V13H107.635V11H105.635ZM86.6352 11V9H84.6352V11H86.6352ZM86.6352 29.5H84.6352V31.5H86.6352V29.5ZM101.735 29.5H103.735V27.5H101.735V29.5ZM101.735 39.5V41.5H103.735V39.5H101.735ZM86.6352 39.5V37.5H84.6352V39.5H86.6352ZM86.6352 61H84.6352V63H86.6352V61ZM105.635 61H107.635V59H105.635V61ZM105.635 71V73H107.635V71H105.635ZM75.6352 71H73.6352V73H75.6352V71ZM75.6352 3H105.635V-1H75.6352V3ZM103.635 0.999996V11H107.635V0.999996H103.635ZM105.635 9H86.6352V13H105.635V9ZM84.6352 11V29.5H88.6352V11H84.6352ZM86.6352 31.5H101.735V27.5H86.6352V31.5ZM99.7352 29.5V39.5H103.735V29.5H99.7352ZM101.735 37.5H86.6352V41.5H101.735V37.5ZM84.6352 39.5V61H88.6352V39.5H84.6352ZM86.6352 63H105.635V59H86.6352V63ZM103.635 61V71H107.635V61H103.635ZM105.635 69H75.6352V73H105.635V69ZM77.6352 71V0.999996H73.6352V71H77.6352ZM131.479 67.4L132.94 66.0342L131.479 67.4ZM131.479 4.6L132.94 5.96576L131.479 4.6ZM156.279 4.6L154.818 5.96576V5.96576L156.279 4.6ZM156.279 67.4L154.818 66.0342L156.279 67.4ZM143.879 70C138.865 70 135.327 68.5882 132.94 66.0342L130.018 68.7658C133.364 72.3451 138.093 74 143.879 74V70ZM132.94 66.0342C130.522 63.4477 129.179 59.6661 129.179 54.4H125.179C125.179 60.3339 126.702 65.219 130.018 68.7658L132.94 66.0342ZM129.179 54.4V17.6H125.179V54.4H129.179ZM129.179 17.6C129.179 12.3339 130.522 8.55233 132.94 5.96576L130.018 3.23423C126.702 6.78099 125.179 11.6661 125.179 17.6H129.179ZM132.94 5.96576C135.327 3.41176 138.865 2 143.879 2V-2C138.093 -2 133.364 -0.3451 130.018 3.23423L132.94 5.96576ZM143.879 2C148.893 2 152.43 3.41176 154.818 5.96576L157.74 3.23423C154.394 -0.3451 149.665 -2 143.879 -2V2ZM154.818 5.96576C157.236 8.55233 158.579 12.3339 158.579 17.6H162.579C162.579 11.6661 161.055 6.78099 157.74 3.23423L154.818 5.96576ZM158.579 17.6V54.4H162.579V17.6H158.579ZM158.579 54.4C158.579 59.6661 157.236 63.4477 154.818 66.0342L157.74 68.7658C161.055 65.219 162.579 60.3339 162.579 54.4H158.579ZM154.818 66.0342C152.43 68.5882 148.893 70 143.879 70V74C149.665 74 154.394 72.3451 157.74 68.7658L154.818 66.0342ZM143.879 64C146.199 64 148.266 63.2796 149.696 61.5488C151.065 59.8911 151.579 57.6252 151.579 55.1H147.579C147.579 57.1748 147.143 58.3589 146.612 59.0012C146.142 59.5704 145.359 60 143.879 60V64ZM151.579 55.1V16.9H147.579V55.1H151.579ZM151.579 16.9C151.579 14.3748 151.065 12.1089 149.696 10.4512C148.266 8.72038 146.199 8 143.879 8V12C145.359 12 146.142 12.4296 146.612 12.9988C147.143 13.6411 147.579 14.8252 147.579 16.9H151.579ZM143.879 8C141.559 8 139.492 8.72038 138.062 10.4512C136.693 12.1089 136.179 14.3748 136.179 16.9H140.179C140.179 14.8252 140.615 13.6411 141.146 12.9988C141.616 12.4296 142.399 12 143.879 12V8ZM136.179 16.9V55.1H140.179V16.9H136.179ZM136.179 55.1C136.179 57.6252 136.693 59.8911 138.062 61.5488C139.492 63.2796 141.559 64 143.879 64V60C142.399 60 141.616 59.5704 141.146 59.0012C140.615 58.3589 140.179 57.1748 140.179 55.1H136.179ZM171.818 67.5L170.341 68.8485L170.348 68.8566L170.356 68.8646L171.818 67.5ZM167.618 0.999996V-1H165.618V0.999996H167.618ZM178.618 0.999996H180.618V-1H178.618V0.999996ZM180.018 60.4L178.513 61.717L178.535 61.7428L178.559 61.7679L180.018 60.4ZM188.318 60.4L186.859 59.0321L186.835 59.0572L186.813 59.083L188.318 60.4ZM189.818 0.999996V-1H187.818V0.999996H189.818ZM200.418 0.999996H202.418V-1H200.418V0.999996ZM196.218 67.5L197.68 68.8646L197.688 68.8566L197.695 68.8485L196.218 67.5ZM184.018 70C179.064 70 175.597 68.6178 173.28 66.1354L170.356 68.8646C173.639 72.3822 178.305 74 184.018 74V70ZM173.295 66.1515C170.938 63.5697 169.618 59.7515 169.618 54.4H165.618C165.618 60.3818 167.098 65.297 170.341 68.8485L173.295 66.1515ZM169.618 54.4V0.999996H165.618V54.4H169.618ZM167.618 3H178.618V-1H167.618V3ZM176.618 0.999996V55.2H180.618V0.999996H176.618ZM176.618 55.2C176.618 57.775 177.103 60.1059 178.513 61.717L181.523 59.083C181.066 58.5608 180.618 57.425 180.618 55.2H176.618ZM178.559 61.7679C180.021 63.328 182.002 64 184.218 64V60C182.834 60 182.014 59.6054 181.477 59.0321L178.559 61.7679ZM184.218 64C186.428 64 188.412 63.3294 189.823 61.717L186.813 59.083C186.357 59.6039 185.608 60 184.218 60V64ZM189.777 61.7679C191.289 60.1548 191.818 57.8008 191.818 55.2H187.818C187.818 57.3992 187.347 58.5119 186.859 59.0321L189.777 61.7679ZM191.818 55.2V0.999996H187.818V55.2H191.818ZM189.818 3H200.418V-1H189.818V3ZM198.418 0.999996V54.4H202.418V0.999996H198.418ZM198.418 54.4C198.418 59.7515 197.098 63.5697 194.741 66.1515L197.695 68.8485C200.938 65.297 202.418 60.3818 202.418 54.4H198.418ZM194.756 66.1354C192.439 68.6178 188.972 70 184.018 70V74C189.731 74 194.397 72.3822 197.68 68.8646L194.756 66.1354ZM208.252 0.999996V-1H206.252V0.999996H208.252ZM236.952 5L235.52 6.3962L235.529 6.40526L235.538 6.41421L236.952 5ZM233.652 35.2L232.905 33.3448L231.652 33.8494V35.2H233.652ZM233.652 35.4H231.652V36.8881L233.078 37.3157L233.652 35.4ZM239.252 40.3L237.417 41.0938L237.426 41.1145L237.435 41.135L239.252 40.3ZM241.152 67.4L239.163 67.6094L239.165 67.6209L241.152 67.4ZM242.152 71V73H245.23L243.98 70.1877L242.152 71ZM230.952 71L229.066 71.6656L229.537 73H230.952V71ZM228.352 42.9L226.783 44.1393L226.802 44.1641L226.823 44.1883L228.352 42.9ZM219.252 41V39H217.252V41H219.252ZM219.252 71V73H221.252V71H219.252ZM208.252 71H206.252V73H208.252V71ZM228.152 29.3L226.738 27.8858L226.717 27.9072L226.696 27.9293L228.152 29.3ZM228.452 12.7L226.864 13.9149L226.886 13.9436L226.908 13.9714L228.452 12.7ZM219.252 11V9H217.252V11H219.252ZM219.252 31H217.252V33H219.252V31ZM208.252 3H224.552V-1H208.252V3ZM224.552 3C229.957 3 233.454 4.27704 235.52 6.3962L238.384 3.6038C235.251 0.389616 230.481 -1 224.552 -1V3ZM235.538 6.41421C237.614 8.49032 238.852 11.9077 238.852 17.1H242.852C242.852 11.3589 241.49 6.70967 238.367 3.58578L235.538 6.41421ZM238.852 17.1V21.4H242.852V17.1H238.852ZM238.852 21.4C238.852 24.8328 238.283 27.4517 237.279 29.3749C236.299 31.2538 234.862 32.5566 232.905 33.3448L234.4 37.0552C237.243 35.91 239.406 33.9462 240.826 31.2251C242.222 28.5483 242.852 25.2339 242.852 21.4H238.852ZM231.652 35.2V35.4H235.652V35.2H231.652ZM233.078 37.3157C235.202 37.9531 236.594 39.1908 237.417 41.0938L241.088 39.5062C239.778 36.4758 237.436 34.4469 234.227 33.4843L233.078 37.3157ZM237.435 41.135C238.402 43.2391 238.952 46.2185 238.952 50.2H242.952C242.952 45.9148 242.37 42.2943 241.07 39.465L237.435 41.135ZM238.952 50.2V62.5H242.952V50.2H238.952ZM238.952 62.5C238.952 64.5354 239.02 66.2457 239.163 67.6094L243.141 67.1906C243.018 66.021 242.952 64.4646 242.952 62.5H238.952ZM239.165 67.6209C239.322 69.0421 239.715 70.4409 240.325 71.8123L243.98 70.1877C243.523 69.1591 243.249 68.1579 243.14 67.1791L239.165 67.6209ZM242.152 69H230.952V73H242.152V69ZM232.838 70.3344C232.476 69.3072 232.247 68.3759 232.135 67.5357L228.17 68.0643C228.325 69.2241 228.629 70.4261 229.066 71.6656L232.838 70.3344ZM232.135 67.5357C232.021 66.6837 231.952 65.007 231.952 62.4H227.952C227.952 64.993 228.017 66.9163 228.17 68.0643L232.135 67.5357ZM231.952 62.4V49.6H227.952V62.4H231.952ZM231.952 49.6C231.952 46.3077 231.43 43.4496 229.882 41.6117L226.823 44.1883C227.408 44.8837 227.952 46.4923 227.952 49.6H231.952ZM229.922 41.6607C228.368 39.6926 225.846 39 223.052 39V43C225.325 43 226.336 43.574 226.783 44.1393L229.922 41.6607ZM223.052 39H219.252V43H223.052V39ZM217.252 41V71H221.252V41H217.252ZM219.252 69H208.252V73H219.252V69ZM210.252 71V0.999996H206.252V71H210.252ZM223.252 33C225.771 33 228.03 32.3485 229.609 30.6707L226.696 27.9293C226.142 28.5182 225.134 29 223.252 29V33ZM229.567 30.7142C231.258 29.0223 231.852 26.4639 231.852 23.6H227.852C227.852 26.0694 227.313 27.311 226.738 27.8858L229.567 30.7142ZM231.852 23.6V18.2H227.852V23.6H231.852ZM231.852 18.2C231.852 15.5079 231.373 13.1003 229.996 11.4286L226.908 13.9714C227.398 14.5664 227.852 15.8254 227.852 18.2H231.852ZM230.041 11.4851C228.672 9.69458 226.571 9 224.252 9V13C225.8 13 226.5 13.4387 226.864 13.9149L230.041 11.4851ZM224.252 9H219.252V13H224.252V9ZM217.252 11V31H221.252V11H217.252ZM219.252 33H223.252V29H219.252V33ZM264.6 0.999996V-1H262.6V0.999996H264.6ZM293.1 5.4L291.637 6.76345V6.76345L293.1 5.4ZM293.1 38.1L291.637 36.7365L293.1 38.1ZM275.6 42.5V40.5H273.6V42.5H275.6ZM275.6 71V73H277.6V71H275.6ZM264.6 71H262.6V73H264.6V71ZM284.8 31L283.338 29.6354L283.313 29.6623L283.289 29.6901L284.8 31ZM284.8 12.5L283.289 13.8099L283.313 13.8377L283.338 13.8646L284.8 12.5ZM275.6 11V9H273.6V11H275.6ZM275.6 32.5H273.6V34.5H275.6V32.5ZM264.6 3H280.8V-1H264.6V3ZM280.8 3C285.921 3 289.404 4.36721 291.637 6.76345L294.563 4.03655C291.329 0.566114 286.613 -1 280.8 -1V3ZM291.637 6.76345C293.905 9.19758 295.2 12.9301 295.2 18.3H299.2C299.2 12.3366 297.762 7.46908 294.563 4.03655L291.637 6.76345ZM295.2 18.3V25.2H299.2V18.3H295.2ZM295.2 25.2C295.2 30.5699 293.905 34.3024 291.637 36.7365L294.563 39.4634C297.762 36.0309 299.2 31.1634 299.2 25.2H295.2ZM291.637 36.7365C289.404 39.1328 285.921 40.5 280.8 40.5V44.5C286.613 44.5 291.329 42.9339 294.563 39.4634L291.637 36.7365ZM280.8 40.5H275.6V44.5H280.8V40.5ZM273.6 42.5V71H277.6V42.5H273.6ZM275.6 69H264.6V73H275.6V69ZM266.6 71V0.999996H262.6V71H266.6ZM280.8 34.5C282.961 34.5 284.942 33.8905 286.311 32.3099L283.289 29.6901C282.925 30.1095 282.239 30.5 280.8 30.5V34.5ZM286.262 32.3646C287.722 30.8001 288.2 28.4569 288.2 25.9H284.2C284.2 28.1431 283.744 29.1999 283.338 29.6354L286.262 32.3646ZM288.2 25.9V17.6H284.2V25.9H288.2ZM288.2 17.6C288.2 15.0431 287.722 12.6999 286.262 11.1354L283.338 13.8646C283.744 14.3001 284.2 15.3569 284.2 17.6H288.2ZM286.311 11.1901C284.942 9.60953 282.961 9 280.8 9V13C282.239 13 282.925 13.3905 283.289 13.8099L286.311 11.1901ZM280.8 9H275.6V13H280.8V9ZM273.6 11V32.5H277.6V11H273.6ZM275.6 34.5H280.8V30.5H275.6V34.5ZM303.174 0.999996V-1H301.174V0.999996H303.174ZM331.874 5L330.442 6.3962L330.451 6.40526L330.46 6.41421L331.874 5ZM328.574 35.2L327.827 33.3448L326.574 33.8494V35.2H328.574ZM328.574 35.4H326.574V36.8881L328 37.3157L328.574 35.4ZM334.174 40.3L332.339 41.0938L332.347 41.1145L332.357 41.135L334.174 40.3ZM336.074 67.4L334.085 67.6094L334.086 67.6209L336.074 67.4ZM337.074 71V73H340.152L338.902 70.1877L337.074 71ZM325.874 71L323.988 71.6656L324.459 73H325.874V71ZM323.274 42.9L321.704 44.1393L321.724 44.1641L321.744 44.1883L323.274 42.9ZM314.174 41V39H312.174V41H314.174ZM314.174 71V73H316.174V71H314.174ZM303.174 71H301.174V73H303.174V71ZM323.074 29.3L321.66 27.8858L321.639 27.9072L321.618 27.9293L323.074 29.3ZM323.374 12.7L321.785 13.9149L321.807 13.9436L321.83 13.9714L323.374 12.7ZM314.174 11V9H312.174V11H314.174ZM314.174 31H312.174V33H314.174V31ZM303.174 3H319.474V-1H303.174V3ZM319.474 3C324.879 3 328.376 4.27704 330.442 6.3962L333.306 3.6038C330.172 0.389616 325.403 -1 319.474 -1V3ZM330.46 6.41421C332.536 8.49032 333.774 11.9077 333.774 17.1H337.774C337.774 11.3589 336.412 6.70967 333.288 3.58578L330.46 6.41421ZM333.774 17.1V21.4H337.774V17.1H333.774ZM333.774 21.4C333.774 24.8328 333.204 27.4517 332.201 29.3749C331.221 31.2538 329.784 32.5566 327.827 33.3448L329.321 37.0552C332.165 35.91 334.328 33.9462 335.747 31.2251C337.144 28.5483 337.774 25.2339 337.774 21.4H333.774ZM326.574 35.2V35.4H330.574V35.2H326.574ZM328 37.3157C330.124 37.9531 331.516 39.1908 332.339 41.0938L336.01 39.5062C334.7 36.4758 332.357 34.4469 329.149 33.4843L328 37.3157ZM332.357 41.135C333.324 43.2391 333.874 46.2185 333.874 50.2H337.874C337.874 45.9148 337.292 42.2943 335.992 39.465L332.357 41.135ZM333.874 50.2V62.5H337.874V50.2H333.874ZM333.874 62.5C333.874 64.5354 333.942 66.2457 334.085 67.6094L338.063 67.1906C337.94 66.021 337.874 64.4646 337.874 62.5H333.874ZM334.086 67.6209C334.244 69.0421 334.637 70.4409 335.247 71.8123L338.902 70.1877C338.445 69.1591 338.171 68.1579 338.062 67.1791L334.086 67.6209ZM337.074 69H325.874V73H337.074V69ZM327.76 70.3344C327.398 69.3072 327.169 68.3759 327.057 67.5357L323.092 68.0643C323.246 69.2241 323.551 70.4261 323.988 71.6656L327.76 70.3344ZM327.057 67.5357C326.943 66.6837 326.874 65.007 326.874 62.4H322.874C322.874 64.993 322.939 66.9163 323.092 68.0643L327.057 67.5357ZM326.874 62.4V49.6H322.874V62.4H326.874ZM326.874 49.6C326.874 46.3077 326.352 43.4496 324.804 41.6117L321.744 44.1883C322.33 44.8837 322.874 46.4923 322.874 49.6H326.874ZM324.844 41.6607C323.29 39.6926 320.768 39 317.974 39V43C320.247 43 321.258 43.574 321.704 44.1393L324.844 41.6607ZM317.974 39H314.174V43H317.974V39ZM312.174 41V71H316.174V41H312.174ZM314.174 69H303.174V73H314.174V69ZM305.174 71V0.999996H301.174V71H305.174ZM318.174 33C320.693 33 322.952 32.3485 324.531 30.6707L321.618 27.9293C321.064 28.5182 320.056 29 318.174 29V33ZM324.488 30.7142C326.18 29.0223 326.774 26.4639 326.774 23.6H322.774C322.774 26.0694 322.235 27.311 321.66 27.8858L324.488 30.7142ZM326.774 23.6V18.2H322.774V23.6H326.774ZM326.774 18.2C326.774 15.5079 326.295 13.1003 324.918 11.4286L321.83 13.9714C322.32 14.5664 322.774 15.8254 322.774 18.2H326.774ZM324.963 11.4851C323.594 9.69458 321.493 9 319.174 9V13C320.722 13 321.421 13.4387 321.785 13.9149L324.963 11.4851ZM319.174 9H314.174V13H319.174V9ZM312.174 11V31H316.174V11H312.174ZM314.174 33H318.174V29H314.174V33ZM347.006 67.4L348.467 66.0342L347.006 67.4ZM347.006 4.6L348.467 5.96576L347.006 4.6ZM371.806 4.6L370.345 5.96576V5.96576L371.806 4.6ZM371.806 67.4L370.345 66.0342L371.806 67.4ZM359.406 70C354.392 70 350.855 68.5882 348.467 66.0342L345.545 68.7658C348.891 72.3451 353.62 74 359.406 74V70ZM348.467 66.0342C346.049 63.4477 344.706 59.6661 344.706 54.4H340.706C340.706 60.3339 342.23 65.219 345.545 68.7658L348.467 66.0342ZM344.706 54.4V17.6H340.706V54.4H344.706ZM344.706 17.6C344.706 12.3339 346.049 8.55233 348.467 5.96576L345.545 3.23423C342.23 6.78099 340.706 11.6661 340.706 17.6H344.706ZM348.467 5.96576C350.855 3.41176 354.392 2 359.406 2V-2C353.62 -2 348.891 -0.3451 345.545 3.23423L348.467 5.96576ZM359.406 2C364.42 2 367.958 3.41176 370.345 5.96576L373.267 3.23423C369.921 -0.3451 365.192 -2 359.406 -2V2ZM370.345 5.96576C372.763 8.55233 374.106 12.3339 374.106 17.6H378.106C378.106 11.6661 376.583 6.78099 373.267 3.23423L370.345 5.96576ZM374.106 17.6V54.4H378.106V17.6H374.106ZM374.106 54.4C374.106 59.6661 372.763 63.4477 370.345 66.0342L373.267 68.7658C376.583 65.219 378.106 60.3339 378.106 54.4H374.106ZM370.345 66.0342C367.958 68.5882 364.42 70 359.406 70V74C365.192 74 369.921 72.3451 373.267 68.7658L370.345 66.0342ZM359.406 64C361.726 64 363.793 63.2796 365.223 61.5488C366.593 59.8911 367.106 57.6252 367.106 55.1H363.106C363.106 57.1748 362.67 58.3589 362.139 59.0012C361.669 59.5704 360.887 60 359.406 60V64ZM367.106 55.1V16.9H363.106V55.1H367.106ZM367.106 16.9C367.106 14.3748 366.593 12.1089 365.223 10.4512C363.793 8.72038 361.726 8 359.406 8V12C360.887 12 361.669 12.4296 362.139 12.9988C362.67 13.6411 363.106 14.8252 363.106 16.9H367.106ZM359.406 8C357.087 8 355.019 8.72038 353.589 10.4512C352.22 12.1089 351.706 14.3748 351.706 16.9H355.706C355.706 14.8252 356.143 13.6411 356.673 12.9988C357.143 12.4296 357.926 12 359.406 12V8ZM351.706 16.9V55.1H355.706V16.9H351.706ZM351.706 55.1C351.706 57.6252 352.22 59.8911 353.589 61.5488C355.019 63.2796 357.087 64 359.406 64V60C357.926 60 357.143 59.5704 356.673 59.0012C356.143 58.3589 355.706 57.1748 355.706 55.1H351.706ZM381.045 71H379.045V72.655L380.671 72.9647L381.045 71ZM381.045 61L381.53 59.0597L379.045 58.4384V61H381.045ZM389.545 59.8L390.96 61.2142L390.981 61.1928L391.002 61.1707L389.545 59.8ZM391.145 0.999996V-1H389.145V0.999996H391.145ZM402.145 0.999996H404.145V-1H402.145V0.999996ZM398.145 67.2L396.697 65.8207L396.688 65.8298L396.68 65.8391L398.145 67.2ZM386.145 69.4C384.225 69.4 382.658 69.2712 381.42 69.0353L380.671 72.9647C382.233 73.2621 384.066 73.4 386.145 73.4V69.4ZM383.045 71V61H379.045V71H383.045ZM380.56 62.9403C381.815 63.254 383.182 63.4 384.645 63.4V59.4C383.442 59.4 382.409 59.2794 381.53 59.0597L380.56 62.9403ZM384.645 63.4C387.133 63.4 389.375 62.7985 390.96 61.2142L388.131 58.3858C387.582 58.9348 386.558 59.4 384.645 59.4V63.4ZM391.002 61.1707C392.549 59.5271 393.145 57.2458 393.145 54.7H389.145C389.145 56.6876 388.675 57.8062 388.089 58.4293L391.002 61.1707ZM393.145 54.7V0.999996H389.145V54.7H393.145ZM391.145 3H402.145V-1H391.145V3ZM400.145 0.999996V54.4H404.145V0.999996H400.145ZM400.145 54.4C400.145 59.8641 398.871 63.5382 396.697 65.8207L399.594 68.5793C402.753 65.2618 404.145 60.4026 404.145 54.4H400.145ZM396.68 65.8391C394.593 68.0864 391.224 69.4 386.145 69.4V73.4C391.866 73.4 396.498 71.9136 399.611 68.5609L396.68 65.8391ZM410.01 0.999996V-1H408.01V0.999996H410.01ZM440.01 0.999996H442.01V-1H440.01V0.999996ZM440.01 11V13H442.01V11H440.01ZM421.01 11V9H419.01V11H421.01ZM421.01 29.5H419.01V31.5H421.01V29.5ZM436.11 29.5H438.11V27.5H436.11V29.5ZM436.11 39.5V41.5H438.11V39.5H436.11ZM421.01 39.5V37.5H419.01V39.5H421.01ZM421.01 61H419.01V63H421.01V61ZM440.01 61H442.01V59H440.01V61ZM440.01 71V73H442.01V71H440.01ZM410.01 71H408.01V73H410.01V71ZM410.01 3H440.01V-1H410.01V3ZM438.01 0.999996V11H442.01V0.999996H438.01ZM440.01 9H421.01V13H440.01V9ZM419.01 11V29.5H423.01V11H419.01ZM421.01 31.5H436.11V27.5H421.01V31.5ZM434.11 29.5V39.5H438.11V29.5H434.11ZM436.11 37.5H421.01V41.5H436.11V37.5ZM419.01 39.5V61H423.01V39.5H419.01ZM421.01 63H440.01V59H421.01V63ZM438.01 61V71H442.01V61H438.01ZM440.01 69H410.01V73H440.01V69ZM412.01 71V0.999996H408.01V71H412.01ZM449.738 67.5L448.26 68.847L448.268 68.8559L448.276 68.8646L449.738 67.5ZM449.738 4.5L448.276 3.13536L448.268 3.14414L448.26 3.15302L449.738 4.5ZM473.838 4.5L472.36 5.84698L472.368 5.85585L472.376 5.86463L473.838 4.5ZM478.038 24.6V26.6H480.038V24.6H478.038ZM467.638 24.6H465.638V26.6H467.638V24.6ZM467.638 44.9V42.9H465.638V44.9H467.638ZM478.038 44.9H480.038V42.9H478.038V44.9ZM473.838 67.5L472.376 66.1354L472.368 66.1441L472.36 66.153L473.838 67.5ZM461.838 70C456.96 70 453.522 68.6227 451.2 66.1354L448.276 68.8646C451.555 72.3773 456.184 74 461.838 74V70ZM451.217 66.153C448.921 63.6333 447.638 59.9439 447.638 54.8H443.638C443.638 60.5894 445.089 65.3667 448.26 68.847L451.217 66.153ZM447.638 54.8V17.2H443.638V54.8H447.638ZM447.638 17.2C447.638 12.0561 448.921 8.36675 451.217 5.84698L448.26 3.15302C445.089 6.63325 443.638 11.4106 443.638 17.2H447.638ZM451.2 5.86463C453.522 3.37728 456.96 2 461.838 2V-2C456.184 -2 451.555 -0.377289 448.276 3.13536L451.2 5.86463ZM461.838 2C466.72 2 470.11 3.37809 472.36 5.84698L475.317 3.15302C472.099 -0.378099 467.49 -2 461.838 -2V2ZM472.376 5.86463C474.729 8.3852 476.038 12.0678 476.038 17.2H480.038C480.038 11.3988 478.548 6.61479 475.3 3.13536L472.376 5.86463ZM476.038 17.2V24.6H480.038V17.2H476.038ZM478.038 22.6H467.638V26.6H478.038V22.6ZM469.638 24.6V16.5H465.638V24.6H469.638ZM469.638 16.5C469.638 14.099 469.137 11.9255 467.79 10.3331C466.389 8.67678 464.376 8 462.138 8V12C463.568 12 464.305 12.4065 464.737 12.9169C465.222 13.4912 465.638 14.5676 465.638 16.5H469.638ZM462.138 8C459.901 8 457.888 8.67678 456.487 10.3331C455.139 11.9255 454.638 14.099 454.638 16.5H458.638C458.638 14.5676 459.054 13.4912 459.54 12.9169C459.972 12.4065 460.709 12 462.138 12V8ZM454.638 16.5V55.6H458.638V16.5H454.638ZM454.638 55.6C454.638 57.9737 455.142 60.1272 456.496 61.7035C457.901 63.3379 459.911 64 462.138 64V60C460.699 60 459.959 59.5955 459.53 59.0965C459.051 58.5395 458.638 57.493 458.638 55.6H454.638ZM462.138 64C464.366 64 466.376 63.3379 467.78 61.7035C469.135 60.1272 469.638 57.9737 469.638 55.6H465.638C465.638 57.493 465.225 58.5395 464.746 59.0965C464.318 59.5955 463.578 60 462.138 60V64ZM469.638 55.6V44.9H465.638V55.6H469.638ZM467.638 46.9H478.038V42.9H467.638V46.9ZM476.038 44.9V54.8H480.038V44.9H476.038ZM476.038 54.8C476.038 59.9322 474.729 63.6148 472.376 66.1354L475.3 68.8646C478.548 65.3852 480.038 60.6012 480.038 54.8H476.038ZM472.36 66.153C470.11 68.6219 466.72 70 461.838 70V74C467.49 74 472.099 72.3781 475.317 68.847L472.36 66.153ZM493.22 11H495.22V9H493.22V11ZM481.72 11H479.72V13H481.72V11ZM481.72 0.999996V-1H479.72V0.999996H481.72ZM515.72 0.999996H517.72V-1H515.72V0.999996ZM515.72 11V13H517.72V11H515.72ZM504.22 11V9H502.22V11H504.22ZM504.22 71V73H506.22V71H504.22ZM493.22 71H491.22V73H493.22V71ZM493.22 9H481.72V13H493.22V9ZM483.72 11V0.999996H479.72V11H483.72ZM481.72 3H515.72V-1H481.72V3ZM513.72 0.999996V11H517.72V0.999996H513.72ZM515.72 9H504.22V13H515.72V9ZM502.22 11V71H506.22V11H502.22ZM504.22 69H493.22V73H504.22V69ZM495.22 71V11H491.22V71H495.22ZM523.245 67.5L521.752 68.8307L521.76 68.8389L521.767 68.847L523.245 67.5ZM519.145 50.4V48.4H517.145V50.4H519.145ZM529.545 50.4H531.545V48.4H529.545V50.4ZM539.445 60.4L537.946 59.0767L537.94 59.083L539.445 60.4ZM538.945 47.3L537.221 48.314L537.228 48.3254L537.235 48.3366L538.945 47.3ZM531.545 39.2L530.222 40.6997L530.232 40.7086L531.545 39.2ZM522.045 28.4L520.294 29.3652L520.298 29.3729L520.302 29.3805L522.045 28.4ZM523.545 4.6L525.007 5.96463L525.015 5.95662L525.022 5.94854L523.545 4.6ZM547.645 4.6L546.136 5.91235L546.151 5.92984L546.167 5.94698L547.645 4.6ZM551.745 20.5V22.5H553.745V20.5H551.745ZM541.345 20.5H539.345V22.5H541.345V20.5ZM539.945 11.7L538.401 12.9714L538.42 12.9945L538.44 13.017L539.945 11.7ZM532.345 23.8L530.635 24.8366L530.646 24.8553L530.658 24.8737L532.345 23.8ZM539.845 31.8L538.532 33.3086L538.533 33.3092L539.845 31.8ZM549.345 42.7L547.579 43.6374L549.345 42.7ZM547.645 67.4L546.184 66.0342L546.176 66.0428L546.168 66.0515L547.645 67.4ZM535.345 70C530.388 70 526.969 68.6168 524.724 66.153L521.767 68.847C524.989 72.3832 529.636 74 535.345 74V70ZM524.738 66.1693C522.438 63.5878 521.145 59.7627 521.145 54.4H517.145C517.145 60.3706 518.586 65.2788 521.752 68.8307L524.738 66.1693ZM521.145 54.4V50.4H517.145V54.4H521.145ZM519.145 52.4H529.545V48.4H519.145V52.4ZM527.545 50.4V55.2H531.545V50.4H527.545ZM527.545 55.2C527.545 57.6974 528.061 59.9429 529.438 61.5848C530.87 63.2943 532.935 64 535.245 64V60C533.755 60 532.97 59.5724 532.503 59.0152C531.979 58.3904 531.545 57.236 531.545 55.2H527.545ZM535.245 64C537.495 64 539.526 63.3449 540.95 61.717L537.94 59.083C537.498 59.5884 536.729 60 535.245 60V64ZM540.945 61.7232C542.418 60.0544 542.945 57.6653 542.945 55H538.945C538.945 57.268 538.473 58.479 537.946 59.0768L540.945 61.7232ZM542.945 55C542.945 51.7535 542.204 48.8179 540.656 46.2634L537.235 48.3366C538.353 50.1821 538.945 52.3798 538.945 55H542.945ZM540.669 46.286C539.171 43.7396 536.511 40.8707 532.858 37.6914L530.232 40.7086C533.779 43.7959 536.053 46.3271 537.221 48.314L540.669 46.286ZM532.869 37.7003C528.409 33.7656 525.43 30.3386 523.788 27.4195L520.302 29.3805C522.26 32.8614 525.615 36.6344 530.222 40.6997L532.869 37.7003ZM523.797 27.4348C522.174 24.49 521.345 21.1604 521.345 17.4H517.345C517.345 21.7729 518.316 25.7767 520.294 29.3652L523.797 27.4348ZM521.345 17.4C521.345 12.1935 522.659 8.48104 525.007 5.96463L522.083 3.23536C518.832 6.71896 517.345 11.5398 517.345 17.4H521.345ZM525.022 5.94854C527.342 3.40754 530.804 2 535.745 2V-2C530.02 -2 525.348 -0.340876 522.068 3.25146L525.022 5.94854ZM535.745 2C540.616 2 543.955 3.40381 546.136 5.91235L549.155 3.28764C546.003 -0.337154 541.408 -2 535.745 -2V2ZM546.167 5.94698C548.452 8.45471 549.745 12.2338 549.745 17.6H553.745C553.745 11.6329 552.306 6.74528 549.124 3.25302L546.167 5.94698ZM549.745 17.6V20.5H553.745V17.6H549.745ZM551.745 18.5H541.345V22.5H551.745V18.5ZM543.345 20.5V16.9H539.345V20.5H543.345ZM543.345 16.9C543.345 14.325 542.86 11.9941 541.45 10.383L538.44 13.017C538.897 13.5392 539.345 14.675 539.345 16.9H543.345ZM541.489 10.4286C540.091 8.73051 538.095 8 535.845 8V12C537.196 12 537.933 12.4028 538.401 12.9714L541.489 10.4286ZM535.845 8C533.588 8 531.57 8.70651 530.174 10.406C528.841 12.0299 528.345 14.2438 528.345 16.7H532.345C532.345 14.6896 532.766 13.5534 533.266 12.944C533.704 12.4102 534.436 12 535.845 12V8ZM528.345 16.7C528.345 19.6047 529.115 22.3291 530.635 24.8366L534.056 22.7634C532.909 20.8709 532.345 18.8619 532.345 16.7H528.345ZM530.658 24.8737C532.214 27.3183 534.886 30.1352 538.532 33.3086L541.158 30.2914C537.604 27.1981 535.277 24.6817 534.033 22.7262L530.658 24.8737ZM538.533 33.3092C543.052 37.2388 546.011 40.6831 547.579 43.6374L551.112 41.7626C549.213 38.1835 545.839 34.3612 541.158 30.2908L538.533 33.3092ZM547.579 43.6374C549.132 46.5653 549.945 50.065 549.945 54.2H553.945C553.945 49.535 553.025 45.368 551.112 41.7626L547.579 43.6374ZM549.945 54.2C549.945 59.6143 548.595 63.4557 546.184 66.0342L549.106 68.7658C552.429 65.211 553.945 60.2524 553.945 54.2H549.945ZM546.168 66.0515C543.853 68.5874 540.362 70 535.345 70V74C541.129 74 545.838 72.3459 549.122 68.7485L546.168 66.0515Z" fill="white" mask="url(#path-1-outside-1_0_1)"/>
<line x1="585.707" y1="9.29289" x2="613.394" y2="36.9795" stroke="white" stroke-width="2"/>
<line y1="-1" x2="39.1547" y2="-1" transform="matrix(0.707107 -0.707107 -0.707107 -0.707107 585 63)" stroke="white" stroke-width="2"/>
</svg>
